<svg width="203" height="30" viewBox="0 0 203 30" fill="none" xmlns="http://www.w3.org/2000/svg">
<g clip-path="url(#clip0_0_27)">
<path d="M0 29.815H15.3478V13.2287L24.5861 29.815H52.8206L46.9709 16.9132H33.4658L24.0543 0L0 29.815Z" fill="white"/>
<path d="M67.7584 2.57593C67.3503 2.21126 66.8185 1.94719 66.163 1.77115C65.5199 1.5951 64.7284 1.50708 63.7885 1.50708H60.3628H58.2356V3.48132V8.07114V10.0454V14.0945H60.3628V10.0454H63.7885C64.7284 10.0454 65.5323 9.95737 66.1754 9.78132C66.8185 9.60528 67.3503 9.32863 67.7584 8.97653C68.1665 8.62444 68.4633 8.17174 68.6488 7.63102C68.8343 7.10288 68.9333 6.47414 68.9333 5.76995C68.9333 5.06575 68.8343 4.44959 68.6488 3.92144C68.4757 3.38072 68.1665 2.9406 67.7584 2.57593ZM66.5959 6.77593C66.5093 7.06516 66.3485 7.30408 66.1259 7.4927C65.9033 7.68132 65.6065 7.81965 65.2231 7.92025C64.8397 8.02084 64.3698 8.05857 63.7885 8.05857H60.3628V3.46875H63.7885C64.3698 3.46875 64.8397 3.51905 65.2231 3.60707C65.6065 3.70767 65.9033 3.84599 66.1259 4.03462C66.3485 4.22324 66.5093 4.46216 66.5959 4.75138C66.6824 5.0406 66.7319 5.38012 66.7319 5.75737C66.7319 6.14719 66.6824 6.48671 66.5959 6.77593Z" fill="white"/>
<path d="M73.3236 8.77535H80.2246V6.8011H73.3236V3.48134H80.9295V1.49451H73.3236H71.9138H71.2088V14.0819H71.9138H73.3236H81.115V12.1077H73.3236V8.77535Z" fill="white"/>
<path d="M85.4064 9.41665H87.6078L91.2191 14.0945H93.8038L90.1555 9.36635C90.576 9.32863 90.9594 9.25318 91.2933 9.16516C91.924 9.00168 92.4311 8.75018 92.8268 8.41066C93.2226 8.07114 93.5194 7.65617 93.7049 7.16575C93.8904 6.67533 93.977 6.10947 93.977 5.45557C93.977 4.80168 93.878 4.22324 93.6925 3.73282C93.507 3.2424 93.1978 2.82743 92.7897 2.50048C92.3816 2.17354 91.8498 1.92204 91.1943 1.75858C90.5512 1.5951 89.7597 1.50708 88.8198 1.50708H85.3941H83.2669V3.48132V7.4424V9.41665V14.0945H85.3941V9.41665H85.4064ZM85.4064 3.48132H88.8322C89.4134 3.48132 89.8834 3.51905 90.2668 3.60707C90.6502 3.6951 90.947 3.80827 91.1696 3.97174C91.3922 4.13521 91.553 4.33641 91.6396 4.58791C91.7261 4.83941 91.7756 5.12863 91.7756 5.45557C91.7756 5.78252 91.7261 6.07174 91.6396 6.32324C91.553 6.57474 91.3922 6.77593 91.1696 6.93941C90.947 7.10288 90.6502 7.22863 90.2668 7.30408C89.8834 7.3921 89.4134 7.42983 88.8322 7.42983H85.4064V3.48132Z" fill="white"/>
<path d="M98.3798 8.77535H105.194V6.8011H98.3798V3.48134H105.899V1.49451H98.3798H96.9576H96.2526V14.0819H98.3798V8.77535Z" fill="white"/>
<path d="M113.913 1.23047C111.786 1.23047 110.215 1.78376 109.176 2.89036C108.15 3.99694 107.63 5.63168 107.63 7.79455C107.63 9.97 108.15 11.6047 109.176 12.6987C110.203 13.8053 111.786 14.3586 113.913 14.3586C116.04 14.3586 117.611 13.8053 118.65 12.6987C119.676 11.5922 120.196 9.95743 120.196 7.79455C120.196 5.6191 119.676 3.98437 118.65 2.89036C117.611 1.78376 116.028 1.23047 113.913 1.23047ZM116.993 11.2023C116.337 11.9694 115.311 12.3466 113.913 12.3466C112.516 12.3466 111.501 11.9694 110.834 11.2023C110.178 10.4353 109.844 9.30353 109.844 7.79455C109.844 6.29814 110.166 5.16641 110.821 4.39934C111.464 3.63227 112.503 3.24245 113.913 3.24245C115.311 3.24245 116.325 3.61968 116.993 4.38675C117.648 5.15381 117.982 6.28557 117.982 7.79455C117.982 9.30353 117.648 10.4353 116.993 11.2023Z" fill="white"/>
<path d="M132.006 8.3981C132.402 8.05858 132.699 7.64361 132.884 7.15319C133.07 6.66277 133.156 6.09691 133.156 5.44301C133.156 4.78912 133.057 4.21068 132.872 3.72026C132.686 3.22984 132.377 2.81487 131.969 2.48792C131.561 2.16098 131.029 1.90948 130.374 1.746C129.731 1.58253 128.939 1.49451 127.999 1.49451H124.561H122.434V3.46876V7.42984V9.40409V14.0819H124.561V9.40409H126.762L130.374 14.0819H132.958L129.31 9.35379C129.731 9.31607 130.114 9.24062 130.448 9.15259C131.091 8.98912 131.61 8.73762 132.006 8.3981ZM129.446 7.30409C129.063 7.39211 128.593 7.42984 128.012 7.42984H124.573V3.46876H128.012C128.593 3.46876 129.063 3.50649 129.446 3.59451C129.83 3.68253 130.126 3.79571 130.349 3.95918C130.572 4.12265 130.732 4.32385 130.819 4.57535C130.906 4.82685 130.955 5.11607 130.955 5.44301C130.955 5.76996 130.906 6.05918 130.819 6.31068C130.732 6.56217 130.572 6.76337 130.349 6.92685C130.114 7.10289 129.817 7.22864 129.446 7.30409Z" fill="white"/>
<path d="M142.568 11.0765L137.547 1.49451H135.42V14.0819H137.547V5.83283L141.875 14.0819H143.26L147.589 5.80768V14.0819H149.716V1.49451H147.589L142.568 11.0765Z" fill="white"/>
<path d="M156.395 1.49451L151.312 14.0819H153.6L154.478 11.9065H160.6L161.478 14.0819H163.766L158.683 1.49451H156.395ZM159.796 9.93223H155.269L157.532 4.32385L159.796 9.93223Z" fill="white"/>
<path d="M174.463 10.5233L167.933 1.49451H165.806V14.0819H167.933V5.05319L174.463 14.0819H176.566V1.49451H174.463V10.5233Z" fill="white"/>
<path d="M188.661 11.1772C188.451 11.5041 188.191 11.743 187.857 11.9191C187.523 12.0826 187.152 12.1957 186.732 12.2586C186.311 12.3215 185.891 12.3466 185.47 12.3466C183.974 12.3466 182.861 11.982 182.131 11.2526C181.401 10.5233 181.043 9.3664 181.043 7.76939C181.043 6.9646 181.105 6.28556 181.241 5.71969C181.377 5.15382 181.599 4.68855 181.908 4.31131C182.218 3.93406 182.613 3.66999 183.108 3.49394C183.603 3.3179 184.196 3.22987 184.901 3.22987C185.384 3.22987 185.866 3.2676 186.348 3.33047C186.831 3.39335 187.251 3.53167 187.635 3.72029C188.018 3.90891 188.315 4.17299 188.55 4.52508C188.785 4.8646 188.908 5.3173 188.908 5.87059H190.949C190.949 5.02808 190.813 4.32388 190.553 3.73287C190.294 3.14185 189.898 2.664 189.391 2.29933C188.884 1.92209 188.253 1.65801 187.511 1.49454C186.769 1.33107 185.916 1.24304 184.963 1.24304C182.886 1.24304 181.352 1.77119 180.35 2.84005C179.348 3.90891 178.841 5.55622 178.841 7.78197C178.841 10.0077 179.373 11.6676 180.449 12.749C181.525 13.8305 183.17 14.3712 185.408 14.3712C186.249 14.3712 187.016 14.2957 187.709 14.1323C188.401 13.9814 188.995 13.7299 189.49 13.3778C189.984 13.0257 190.355 12.573 190.627 12.0071C190.887 11.4412 191.023 10.7371 191.023 9.89454H188.995C188.97 10.4227 188.859 10.8502 188.661 11.1772Z" fill="white"/>
<path d="M195.216 12.1077V8.77535H202.117V6.8011H195.216V3.48134H202.821V1.49451H195.216H193.793H193.088V14.0819H193.793H195.216H202.995V12.1077H195.216Z" fill="white"/>
<path d="M67.7584 18.3071C67.3503 17.9424 66.8185 17.6783 66.163 17.5023C65.5199 17.3262 64.7284 17.2382 63.7885 17.2382H60.3628H58.2356V19.2125V23.8023V25.7766V29.8257H60.3628V25.7766H63.7885C64.7284 25.7766 65.5323 25.6886 66.1754 25.5125C66.8185 25.3365 67.3503 25.0598 67.7584 24.7077C68.1665 24.3431 68.4633 23.9029 68.6488 23.3622C68.8343 22.8341 68.9333 22.2053 68.9333 21.5011C68.9333 20.797 68.8343 20.1808 68.6488 19.6526C68.4757 19.1119 68.1665 18.6592 67.7584 18.3071ZM66.5959 22.5071C66.5093 22.7964 66.3485 23.0353 66.1259 23.2239C65.9033 23.4125 65.6065 23.5508 65.2231 23.6514C64.8397 23.752 64.3698 23.7898 63.7885 23.7898H60.3628V19.2H63.7885C64.3698 19.2 64.8397 19.2503 65.2231 19.3383C65.6065 19.4389 65.9033 19.5772 66.1259 19.7658C66.3485 19.9544 66.5093 20.1934 66.5959 20.47C66.6824 20.7592 66.7319 21.0988 66.7319 21.476C66.7319 21.8658 66.6824 22.2053 66.5959 22.5071Z" fill="white"/>
<path d="M73.3236 24.5066H80.2246V22.5323H73.3236V19.2H80.9295V17.2256H73.3236H71.9138H71.2088V29.8131H71.9138H73.3236H81.115V27.8389H73.3236V24.5066Z" fill="white"/>
<path d="M87.1255 17.2256L82.0426 29.8131H84.3305L85.2086 27.6377H91.3304L92.2085 29.8131H94.4964L89.4135 17.2256H87.1255ZM90.5265 25.6634H86.0001L88.2633 20.0551L90.5265 25.6634Z" fill="white"/>
<path d="M104.316 17.2256L98.6642 23.5257L104.316 29.8131H107.012L101.348 23.5257L107.012 17.2256H104.316Z" fill="white"/>
<path d="M96.5371 17.2256V29.8131H98.6642V23.5257V17.2256H96.5371Z" fill="white"/>
</g>
<defs>
<clipPath id="clip0_0_27">
<rect width="203" height="30" fill="white"/>
</clipPath>
</defs>
</svg>
